<mxfile host="drawio-plugin" modified="2022-03-19T17:06:52.072Z" agent="5.0 (X11; Linux x86_64) AppleWebKit/537.36 (KHTML, like Gecko) Chrome/89.0.4389.114 Safari/537.36" etag="KHZWjo08iMGOfPB9r0oQ" version="15.5.4" type="embed" pages="2"><diagram id="lgWfAlBlw0ZiCVnl8LOQ" name="db_storage"><mxGraphModel dx="1574" dy="1147" grid="1" gridSize="10" guides="1" tooltips="1" connect="1" arrows="1" fold="1" page="1" pageScale="1" pageWidth="827" pageHeight="1169" background="#F4F1DE" math="0" shadow="0"><root><mxCell id="0"/><mxCell id="1" parent="0"/><mxCell id="4tpqoVMY6uokotEUNQTx-12" value="&lt;h1&gt;System Tables&lt;/h1&gt;" style="whiteSpace=wrap;html=1;labelPosition=center;verticalLabelPosition=top;align=left;verticalAlign=bottom;fillColor=#F2CC8F;strokeColor=#E07A5F;fontColor=#393C56;" parent="1" vertex="1"><mxGeometry x="1010" y="470" width="210" height="520" as="geometry"/></mxCell><mxCell id="4tpqoVMY6uokotEUNQTx-11" value="&lt;h1&gt;User Tables&lt;/h1&gt;" style="whiteSpace=wrap;html=1;labelPosition=center;verticalLabelPosition=top;align=left;verticalAlign=bottom;rounded=0;fontSize=11;strokeWidth=1.5;labelBackgroundColor=none;endFill=0;fillColor=#F2CC8F;strokeColor=#E07A5F;fontColor=#393C56;" parent="1" vertex="1"><mxGeometry x="40" y="470" width="940" height="520" as="geometry"/></mxCell><mxCell id="v5TgPaZyERZ1nf1oJFT5-5" style="orthogonalLoop=1;jettySize=auto;html=1;endArrow=none;endFill=0;strokeWidth=1.5;strokeColor=#E07A5F;labelBackgroundColor=#F4F1DE;fontColor=#393C56;" parent="1" source="v5TgPaZyERZ1nf1oJFT5-2" target="v5TgPaZyERZ1nf1oJFT5-4" edge="1"><mxGeometry relative="1" as="geometry"/></mxCell><mxCell id="v5TgPaZyERZ1nf1oJFT5-42" style="edgeStyle=none;orthogonalLoop=1;jettySize=auto;html=1;entryX=0.5;entryY=0.143;entryDx=0;entryDy=0;entryPerimeter=0;fontSize=16;fontColor=#393C56;endArrow=none;endFill=0;strokeColor=#E07A5F;strokeWidth=1.5;labelBackgroundColor=#F4F1DE;" parent="1" source="v5TgPaZyERZ1nf1oJFT5-2" target="v5TgPaZyERZ1nf1oJFT5-40" edge="1"><mxGeometry relative="1" as="geometry"/></mxCell><mxCell id="v5TgPaZyERZ1nf1oJFT5-43" style="edgeStyle=none;orthogonalLoop=1;jettySize=auto;html=1;fontSize=16;fontColor=#393C56;endArrow=none;endFill=0;strokeColor=#E07A5F;strokeWidth=1.5;labelBackgroundColor=#F4F1DE;" parent="1" source="v5TgPaZyERZ1nf1oJFT5-2" target="v5TgPaZyERZ1nf1oJFT5-41" edge="1"><mxGeometry relative="1" as="geometry"/></mxCell><mxCell id="7" style="edgeStyle=none;rounded=1;orthogonalLoop=1;jettySize=auto;html=1;strokeColor=#E07A5F;strokeWidth=1.5;fontSize=16;fontColor=#393C56;labelBackgroundColor=#F4F1DE;endFill=0;endArrow=none;" parent="1" source="v5TgPaZyERZ1nf1oJFT5-2" target="6" edge="1"><mxGeometry relative="1" as="geometry"/></mxCell><mxCell id="v5TgPaZyERZ1nf1oJFT5-2" value="&lt;font style=&quot;font-size: 16px&quot;&gt;$DB_Home&lt;/font&gt;" style="pointerEvents=1;shadow=0;dashed=0;html=1;strokeColor=#666666;fillColor=#f5f5f5;labelPosition=center;verticalLabelPosition=middle;verticalAlign=middle;outlineConnect=0;align=center;shape=mxgraph.office.concepts.folder;fontColor=#333333;" parent="1" vertex="1"><mxGeometry x="1241" y="50" width="100" height="82" as="geometry"/></mxCell><mxCell id="v5TgPaZyERZ1nf1oJFT5-3" value="&lt;font style=&quot;font-size: 16px&quot;&gt;Data_node_1&lt;br&gt;&lt;/font&gt;" style="shadow=0;dashed=0;html=1;labelPosition=center;verticalLabelPosition=bottom;verticalAlign=top;align=center;outlineConnect=0;shape=mxgraph.veeam.2d.file;fillColor=#f5f5f5;fontColor=#333333;strokeColor=#666666;" parent="1" vertex="1"><mxGeometry x="180" y="705" width="60" height="70" as="geometry"/></mxCell><mxCell id="v5TgPaZyERZ1nf1oJFT5-7" style="edgeStyle=none;orthogonalLoop=1;jettySize=auto;html=1;strokeColor=#E07A5F;endArrow=none;endFill=0;strokeWidth=1.5;labelBackgroundColor=#F4F1DE;fontColor=#393C56;" parent="1" source="v5TgPaZyERZ1nf1oJFT5-4" target="v5TgPaZyERZ1nf1oJFT5-6" edge="1"><mxGeometry relative="1" as="geometry"/></mxCell><mxCell id="v5TgPaZyERZ1nf1oJFT5-13" style="edgeStyle=none;orthogonalLoop=1;jettySize=auto;html=1;endArrow=none;endFill=0;strokeColor=#E07A5F;strokeWidth=1.5;labelBackgroundColor=#F4F1DE;fontColor=#393C56;" parent="1" source="v5TgPaZyERZ1nf1oJFT5-4" target="v5TgPaZyERZ1nf1oJFT5-10" edge="1"><mxGeometry relative="1" as="geometry"/></mxCell><mxCell id="v5TgPaZyERZ1nf1oJFT5-14" style="edgeStyle=none;orthogonalLoop=1;jettySize=auto;html=1;endArrow=none;endFill=0;strokeColor=#E07A5F;strokeWidth=1.5;labelBackgroundColor=#F4F1DE;fontColor=#393C56;" parent="1" source="v5TgPaZyERZ1nf1oJFT5-4" target="v5TgPaZyERZ1nf1oJFT5-11" edge="1"><mxGeometry relative="1" as="geometry"/></mxCell><mxCell id="v5TgPaZyERZ1nf1oJFT5-15" value="" style="edgeStyle=none;orthogonalLoop=1;jettySize=auto;html=1;fontSize=16;endArrow=none;endFill=0;strokeColor=#E07A5F;strokeWidth=1.5;labelBackgroundColor=#F4F1DE;fontColor=#393C56;" parent="1" source="v5TgPaZyERZ1nf1oJFT5-4" target="v5TgPaZyERZ1nf1oJFT5-11" edge="1"><mxGeometry relative="1" as="geometry"/></mxCell><mxCell id="v5TgPaZyERZ1nf1oJFT5-16" value="" style="edgeStyle=none;orthogonalLoop=1;jettySize=auto;html=1;fontSize=15;endArrow=none;endFill=0;strokeColor=#E07A5F;strokeWidth=1.5;labelBackgroundColor=#F4F1DE;fontColor=#393C56;" parent="1" source="v5TgPaZyERZ1nf1oJFT5-4" target="v5TgPaZyERZ1nf1oJFT5-10" edge="1"><mxGeometry relative="1" as="geometry"/></mxCell><mxCell id="5" style="rounded=1;orthogonalLoop=1;jettySize=auto;html=1;strokeColor=#E07A5F;strokeWidth=1.5;fontSize=16;fontColor=#393C56;labelBackgroundColor=#F4F1DE;endFill=0;endArrow=none;" parent="1" source="v5TgPaZyERZ1nf1oJFT5-4" target="4" edge="1"><mxGeometry relative="1" as="geometry"/></mxCell><mxCell id="9" style="edgeStyle=none;orthogonalLoop=1;jettySize=auto;html=1;fontSize=11;fontColor=#393C56;strokeColor=#E07A5F;verticalAlign=middle;strokeWidth=1.5;labelBackgroundColor=#F4F1DE;endFill=0;endArrow=none;" parent="1" source="v5TgPaZyERZ1nf1oJFT5-4" target="8" edge="1"><mxGeometry relative="1" as="geometry"/></mxCell><mxCell id="v5TgPaZyERZ1nf1oJFT5-4" value="&lt;div&gt;&lt;font style=&quot;font-size: 16px&quot;&gt;tables&lt;/font&gt;&lt;/div&gt;" style="pointerEvents=1;shadow=0;dashed=0;html=1;strokeColor=#666666;fillColor=#f5f5f5;labelPosition=center;verticalLabelPosition=middle;verticalAlign=middle;outlineConnect=0;align=center;shape=mxgraph.office.concepts.folder;resizeWidth=0;horizontal=1;fontColor=#333333;fontSize=16;" parent="1" vertex="1"><mxGeometry x="680" y="240" width="80" height="70" as="geometry"/></mxCell><mxCell id="4tpqoVMY6uokotEUNQTx-4" style="edgeStyle=none;orthogonalLoop=1;jettySize=auto;html=1;strokeWidth=1.5;endArrow=none;endFill=0;strokeColor=#E07A5F;labelBackgroundColor=#F4F1DE;fontColor=#393C56;" parent="1" source="v5TgPaZyERZ1nf1oJFT5-6" target="v5TgPaZyERZ1nf1oJFT5-18" edge="1"><mxGeometry relative="1" as="geometry"/></mxCell><mxCell id="4tpqoVMY6uokotEUNQTx-5" style="edgeStyle=none;orthogonalLoop=1;jettySize=auto;html=1;endArrow=none;endFill=0;strokeWidth=1.5;strokeColor=#E07A5F;labelBackgroundColor=#F4F1DE;fontColor=#393C56;" parent="1" source="v5TgPaZyERZ1nf1oJFT5-6" target="v5TgPaZyERZ1nf1oJFT5-44" edge="1"><mxGeometry relative="1" as="geometry"/></mxCell><mxCell id="4tpqoVMY6uokotEUNQTx-6" style="edgeStyle=none;orthogonalLoop=1;jettySize=auto;html=1;endArrow=none;endFill=0;strokeWidth=1.5;strokeColor=#E07A5F;labelBackgroundColor=#F4F1DE;fontColor=#393C56;" parent="1" source="v5TgPaZyERZ1nf1oJFT5-6" target="v5TgPaZyERZ1nf1oJFT5-3" edge="1"><mxGeometry relative="1" as="geometry"/></mxCell><mxCell id="4tpqoVMY6uokotEUNQTx-7" style="edgeStyle=none;orthogonalLoop=1;jettySize=auto;html=1;endArrow=none;endFill=0;strokeWidth=1.5;strokeColor=#E07A5F;labelBackgroundColor=#F4F1DE;fontColor=#393C56;" parent="1" source="v5TgPaZyERZ1nf1oJFT5-6" target="v5TgPaZyERZ1nf1oJFT5-23" edge="1"><mxGeometry relative="1" as="geometry"/></mxCell><mxCell id="4tpqoVMY6uokotEUNQTx-8" style="edgeStyle=none;orthogonalLoop=1;jettySize=auto;html=1;endArrow=none;endFill=0;strokeWidth=1.5;strokeColor=#E07A5F;labelBackgroundColor=#F4F1DE;fontColor=#393C56;" parent="1" source="v5TgPaZyERZ1nf1oJFT5-6" target="v5TgPaZyERZ1nf1oJFT5-20" edge="1"><mxGeometry relative="1" as="geometry"/></mxCell><mxCell id="v5TgPaZyERZ1nf1oJFT5-6" value="&lt;font style=&quot;font-size: 16px&quot;&gt;Table_1&lt;/font&gt;" style="pointerEvents=1;shadow=0;dashed=0;html=1;strokeColor=#666666;fillColor=#f5f5f5;labelPosition=center;verticalLabelPosition=middle;verticalAlign=middle;outlineConnect=0;align=center;shape=mxgraph.office.concepts.folder;fontColor=#333333;" parent="1" vertex="1"><mxGeometry x="320" y="485" width="90" height="72" as="geometry"/></mxCell><mxCell id="v5TgPaZyERZ1nf1oJFT5-29" style="edgeStyle=none;orthogonalLoop=1;jettySize=auto;html=1;fontSize=16;fontColor=#393C56;endArrow=none;endFill=0;strokeColor=#E07A5F;strokeWidth=1.5;labelBackgroundColor=#F4F1DE;" parent="1" source="v5TgPaZyERZ1nf1oJFT5-10" target="v5TgPaZyERZ1nf1oJFT5-25" edge="1"><mxGeometry relative="1" as="geometry"/></mxCell><mxCell id="v5TgPaZyERZ1nf1oJFT5-30" style="edgeStyle=none;orthogonalLoop=1;jettySize=auto;html=1;fontSize=16;fontColor=#393C56;endArrow=none;endFill=0;strokeColor=#E07A5F;strokeWidth=1.5;labelBackgroundColor=#F4F1DE;" parent="1" source="v5TgPaZyERZ1nf1oJFT5-10" target="v5TgPaZyERZ1nf1oJFT5-26" edge="1"><mxGeometry relative="1" as="geometry"/></mxCell><mxCell id="v5TgPaZyERZ1nf1oJFT5-48" style="edgeStyle=none;orthogonalLoop=1;jettySize=auto;html=1;fontSize=16;fontColor=#393C56;endArrow=none;endFill=0;strokeColor=#E07A5F;strokeWidth=1.5;labelBackgroundColor=#F4F1DE;" parent="1" source="v5TgPaZyERZ1nf1oJFT5-10" target="v5TgPaZyERZ1nf1oJFT5-46" edge="1"><mxGeometry relative="1" as="geometry"/></mxCell><mxCell id="v5TgPaZyERZ1nf1oJFT5-10" value="&lt;p&gt;&lt;font style=&quot;font-size: 16px&quot;&gt;Table_2&lt;/font&gt;&lt;/p&gt;" style="pointerEvents=1;shadow=0;dashed=0;html=1;strokeColor=#666666;fillColor=#f5f5f5;labelPosition=center;verticalLabelPosition=middle;verticalAlign=middle;outlineConnect=0;align=center;shape=mxgraph.office.concepts.folder;fontColor=#333333;" parent="1" vertex="1"><mxGeometry x="544" y="510" width="86" height="72" as="geometry"/></mxCell><mxCell id="v5TgPaZyERZ1nf1oJFT5-36" style="edgeStyle=none;orthogonalLoop=1;jettySize=auto;html=1;fontSize=16;fontColor=#393C56;endArrow=none;endFill=0;strokeColor=#E07A5F;strokeWidth=1.5;labelBackgroundColor=#F4F1DE;" parent="1" source="v5TgPaZyERZ1nf1oJFT5-11" target="v5TgPaZyERZ1nf1oJFT5-31" edge="1"><mxGeometry relative="1" as="geometry"/></mxCell><mxCell id="v5TgPaZyERZ1nf1oJFT5-37" style="edgeStyle=none;orthogonalLoop=1;jettySize=auto;html=1;fontSize=16;fontColor=#393C56;endArrow=none;endFill=0;strokeColor=#E07A5F;strokeWidth=1.5;labelBackgroundColor=#F4F1DE;" parent="1" source="v5TgPaZyERZ1nf1oJFT5-11" target="v5TgPaZyERZ1nf1oJFT5-34" edge="1"><mxGeometry relative="1" as="geometry"/></mxCell><mxCell id="v5TgPaZyERZ1nf1oJFT5-39" style="edgeStyle=none;orthogonalLoop=1;jettySize=auto;html=1;fontSize=16;fontColor=#393C56;endArrow=none;endFill=0;strokeColor=#E07A5F;strokeWidth=1.5;labelBackgroundColor=#F4F1DE;" parent="1" source="v5TgPaZyERZ1nf1oJFT5-11" target="v5TgPaZyERZ1nf1oJFT5-32" edge="1"><mxGeometry relative="1" as="geometry"/></mxCell><mxCell id="v5TgPaZyERZ1nf1oJFT5-49" style="edgeStyle=none;orthogonalLoop=1;jettySize=auto;html=1;fontSize=16;fontColor=#393C56;endArrow=none;endFill=0;strokeColor=#E07A5F;strokeWidth=1.5;labelBackgroundColor=#F4F1DE;" parent="1" source="v5TgPaZyERZ1nf1oJFT5-11" target="v5TgPaZyERZ1nf1oJFT5-47" edge="1"><mxGeometry relative="1" as="geometry"/></mxCell><mxCell id="v5TgPaZyERZ1nf1oJFT5-11" value="&lt;font style=&quot;font-size: 16px;&quot;&gt;Table_3&lt;br style=&quot;font-size: 16px;&quot;&gt;&lt;/font&gt;" style="pointerEvents=1;shadow=0;dashed=0;html=1;strokeColor=#666666;fillColor=#f5f5f5;labelPosition=center;verticalLabelPosition=middle;verticalAlign=middle;outlineConnect=0;align=center;shape=mxgraph.office.concepts.folder;fontColor=#333333;fontSize=16;" parent="1" vertex="1"><mxGeometry x="710" y="520" width="90" height="72" as="geometry"/></mxCell><mxCell id="v5TgPaZyERZ1nf1oJFT5-18" value="&lt;font style=&quot;font-size: 16px&quot;&gt;Col_name_1_index&lt;br&gt;&lt;/font&gt;" style="shadow=0;dashed=0;html=1;labelPosition=center;verticalLabelPosition=bottom;verticalAlign=top;align=center;outlineConnect=0;shape=mxgraph.veeam.2d.file;fillColor=#f5f5f5;fontColor=#333333;strokeColor=#666666;" parent="1" vertex="1"><mxGeometry x="310" y="745" width="60" height="70" as="geometry"/></mxCell><mxCell id="v5TgPaZyERZ1nf1oJFT5-20" value="&lt;font style=&quot;font-size: 16px&quot;&gt;Col_name_2_index&lt;br&gt;&lt;/font&gt;" style="shadow=0;dashed=0;html=1;labelPosition=center;verticalLabelPosition=bottom;verticalAlign=top;align=center;outlineConnect=0;shape=mxgraph.veeam.2d.file;fillColor=#f5f5f5;fontColor=#333333;strokeColor=#666666;" parent="1" vertex="1"><mxGeometry x="410" y="835" width="60" height="70" as="geometry"/></mxCell><mxCell id="v5TgPaZyERZ1nf1oJFT5-23" value="&lt;font style=&quot;font-size: 16px&quot;&gt;Data_node_2&lt;br&gt;&lt;/font&gt;" style="shadow=0;dashed=0;html=1;labelPosition=center;verticalLabelPosition=bottom;verticalAlign=top;align=center;outlineConnect=0;shape=mxgraph.veeam.2d.file;fillColor=#f5f5f5;fontColor=#333333;strokeColor=#666666;" parent="1" vertex="1"><mxGeometry x="220" y="835" width="60" height="70" as="geometry"/></mxCell><mxCell id="v5TgPaZyERZ1nf1oJFT5-25" value="&lt;font style=&quot;font-size: 16px&quot;&gt;Data_node_1&lt;br&gt;&lt;/font&gt;" style="shadow=0;dashed=0;html=1;strokeColor=#666666;fillColor=#f5f5f5;labelPosition=center;verticalLabelPosition=bottom;verticalAlign=top;align=center;outlineConnect=0;shape=mxgraph.veeam.2d.file;fontColor=#333333;" parent="1" vertex="1"><mxGeometry x="500" y="705" width="60" height="70" as="geometry"/></mxCell><mxCell id="v5TgPaZyERZ1nf1oJFT5-26" value="&lt;font style=&quot;font-size: 16px&quot;&gt;Col_name_1_index&lt;br&gt;&lt;/font&gt;" style="shadow=0;dashed=0;html=1;labelPosition=center;verticalLabelPosition=bottom;verticalAlign=top;align=center;outlineConnect=0;shape=mxgraph.veeam.2d.file;fillColor=#f5f5f5;fontColor=#333333;strokeColor=#666666;" parent="1" vertex="1"><mxGeometry x="600" y="615" width="60" height="70" as="geometry"/></mxCell><mxCell id="v5TgPaZyERZ1nf1oJFT5-31" value="&lt;font style=&quot;font-size: 16px&quot;&gt;Data_node_1&lt;br&gt;&lt;/font&gt;" style="shadow=0;dashed=0;html=1;labelPosition=center;verticalLabelPosition=bottom;verticalAlign=top;align=center;outlineConnect=0;shape=mxgraph.veeam.2d.file;fillColor=#f5f5f5;fontColor=#333333;strokeColor=#666666;" parent="1" vertex="1"><mxGeometry x="730" y="705" width="60" height="70" as="geometry"/></mxCell><mxCell id="v5TgPaZyERZ1nf1oJFT5-32" value="&lt;font style=&quot;font-size: 16px&quot;&gt;Col_name_1_index&lt;br&gt;&lt;/font&gt;" style="shadow=0;dashed=0;html=1;labelPosition=center;verticalLabelPosition=bottom;verticalAlign=top;align=center;outlineConnect=0;shape=mxgraph.veeam.2d.file;fillColor=#f5f5f5;fontColor=#333333;strokeColor=#666666;" parent="1" vertex="1"><mxGeometry x="870" y="680" width="60" height="70" as="geometry"/></mxCell><mxCell id="v5TgPaZyERZ1nf1oJFT5-34" value="&lt;font style=&quot;font-size: 16px&quot;&gt;Data_node_2&lt;br&gt;&lt;/font&gt;" style="shadow=0;dashed=0;html=1;labelPosition=center;verticalLabelPosition=bottom;verticalAlign=top;align=center;outlineConnect=0;shape=mxgraph.veeam.2d.file;fillColor=#f5f5f5;fontColor=#333333;strokeColor=#666666;" parent="1" vertex="1"><mxGeometry x="810" y="790" width="60" height="70" as="geometry"/></mxCell><mxCell id="v5TgPaZyERZ1nf1oJFT5-40" value="&lt;div&gt;&lt;font style=&quot;font-size: 16px&quot;&gt;Info&lt;/font&gt;&lt;/div&gt;" style="pointerEvents=1;shadow=0;dashed=0;html=1;strokeColor=#666666;fillColor=#f5f5f5;labelPosition=center;verticalLabelPosition=middle;verticalAlign=middle;outlineConnect=0;align=center;shape=mxgraph.office.concepts.folder;resizeWidth=0;horizontal=1;fontColor=#333333;fontSize=16;" parent="1" vertex="1"><mxGeometry x="1410" y="260" width="80" height="70" as="geometry"/></mxCell><mxCell id="v5TgPaZyERZ1nf1oJFT5-41" value="&lt;div&gt;&lt;font style=&quot;font-size: 16px&quot;&gt;config&lt;/font&gt;&lt;/div&gt;" style="pointerEvents=1;shadow=0;dashed=0;html=1;strokeColor=#666666;fillColor=#f5f5f5;labelPosition=center;verticalLabelPosition=middle;verticalAlign=middle;outlineConnect=0;align=center;shape=mxgraph.office.concepts.folder;resizeWidth=0;horizontal=1;fontColor=#333333;fontSize=16;" parent="1" vertex="1"><mxGeometry x="1550" y="200" width="80" height="70" as="geometry"/></mxCell><mxCell id="v5TgPaZyERZ1nf1oJFT5-44" value="&lt;font style=&quot;font-size: 16px&quot;&gt;Info&lt;br&gt;see TableInfo file&lt;br&gt;&lt;/font&gt;" style="shadow=0;dashed=0;html=1;labelPosition=center;verticalLabelPosition=bottom;verticalAlign=top;align=center;outlineConnect=0;shape=mxgraph.veeam.2d.file;fillColor=#f5f5f5;fontColor=#333333;strokeColor=#666666;" parent="1" vertex="1"><mxGeometry x="80" y="705" width="60" height="70" as="geometry"/></mxCell><mxCell id="v5TgPaZyERZ1nf1oJFT5-46" value="&lt;font style=&quot;font-size: 16px&quot;&gt;Info&lt;br&gt;see TableInfo file&lt;br&gt;&lt;/font&gt;" style="shadow=0;dashed=0;html=1;labelPosition=center;verticalLabelPosition=bottom;verticalAlign=top;align=center;outlineConnect=0;shape=mxgraph.veeam.2d.file;fillColor=#f5f5f5;fontColor=#333333;strokeColor=#666666;" parent="1" vertex="1"><mxGeometry x="440" y="582" width="60" height="70" as="geometry"/></mxCell><mxCell id="v5TgPaZyERZ1nf1oJFT5-47" value="&lt;font style=&quot;font-size: 16px&quot;&gt;Info&lt;br&gt;see TableInfo file&lt;br&gt;&lt;/font&gt;" style="shadow=0;dashed=0;html=1;strokeColor=#666666;fillColor=#f5f5f5;labelPosition=center;verticalLabelPosition=bottom;verticalAlign=top;align=center;outlineConnect=0;shape=mxgraph.veeam.2d.file;fontColor=#333333;" parent="1" vertex="1"><mxGeometry x="630" y="775" width="60" height="70" as="geometry"/></mxCell><mxCell id="4tpqoVMY6uokotEUNQTx-18" style="edgeStyle=none;orthogonalLoop=1;jettySize=auto;html=1;endArrow=none;endFill=0;strokeWidth=1.5;strokeColor=#E07A5F;labelBackgroundColor=#F4F1DE;fontColor=#393C56;" parent="1" edge="1"><mxGeometry relative="1" as="geometry"><mxPoint x="1103.5897435897432" y="582" as="sourcePoint"/></mxGeometry></mxCell><mxCell id="4tpqoVMY6uokotEUNQTx-19" style="edgeStyle=none;orthogonalLoop=1;jettySize=auto;html=1;endArrow=none;endFill=0;strokeWidth=1.5;strokeColor=#E07A5F;labelBackgroundColor=#F4F1DE;fontColor=#393C56;" parent="1" edge="1"><mxGeometry relative="1" as="geometry"><mxPoint x="1123.8217522658606" y="582" as="sourcePoint"/></mxGeometry></mxCell><mxCell id="4" value="Large Rows Counter" style="shadow=0;dashed=0;html=1;labelPosition=center;verticalLabelPosition=bottom;verticalAlign=top;align=center;outlineConnect=0;shape=mxgraph.veeam.2d.file;fillColor=#f5f5f5;fontColor=#333333;strokeColor=#666666;fontSize=16;" parent="1" vertex="1"><mxGeometry x="810" y="360" width="60" height="70" as="geometry"/></mxCell><mxCell id="6" value="&lt;div&gt;&lt;font style=&quot;font-size: 16px&quot;&gt;lob&lt;/font&gt;&lt;/div&gt;" style="pointerEvents=1;shadow=0;dashed=0;html=1;strokeColor=#666666;fillColor=#f5f5f5;labelPosition=center;verticalLabelPosition=middle;verticalAlign=middle;outlineConnect=0;align=center;shape=mxgraph.office.concepts.folder;resizeWidth=0;horizontal=1;fontColor=#333333;fontSize=16;" parent="1" vertex="1"><mxGeometry x="1201" y="250" width="80" height="70" as="geometry"/></mxCell><mxCell id="8" value="Lob Counter" style="shadow=0;dashed=0;html=1;labelPosition=center;verticalLabelPosition=bottom;verticalAlign=top;align=center;outlineConnect=0;shape=mxgraph.veeam.2d.file;fillColor=#f5f5f5;fontColor=#333333;strokeColor=#666666;fontSize=16;" parent="1" vertex="1"><mxGeometry x="910" y="330" width="60" height="70" as="geometry"/></mxCell></root></mxGraphModel></diagram><diagram id="z0JI7F0TZwJioCnBTbaH" name="Page-2"><mxGraphModel dx="1102" dy="803" grid="1" gridSize="10" guides="1" tooltips="1" connect="1" arrows="1" fold="1" page="1" pageScale="1" pageWidth="827" pageHeight="1169" background="#F4F1DE" math="0" shadow="0"><root><mxCell id="5r2Fz3-xZ3uCIBKZ55EE-0"/><mxCell id="5r2Fz3-xZ3uCIBKZ55EE-1" parent="5r2Fz3-xZ3uCIBKZ55EE-0"/><mxCell id="5r2Fz3-xZ3uCIBKZ55EE-2" value="" style="rounded=0;whiteSpace=wrap;html=1;fillColor=#F2CC8F;strokeColor=#E07A5F;fontColor=#393C56;" parent="5r2Fz3-xZ3uCIBKZ55EE-1" vertex="1"><mxGeometry x="80" y="160" width="640" height="480" as="geometry"/></mxCell><mxCell id="5r2Fz3-xZ3uCIBKZ55EE-3" value="table name&lt;br&gt;string(with len prefix)&lt;br&gt;2+x bytes" style="rounded=0;whiteSpace=wrap;html=1;sketch=0;fontColor=#393C56;strokeColor=#E07A5F;fillColor=#6C8EBF;" parent="5r2Fz3-xZ3uCIBKZ55EE-1" vertex="1"><mxGeometry x="190" y="160" width="260" height="50" as="geometry"/></mxCell><mxCell id="UuGbBL0RVB_przfQgJjc-0" value="Object id&lt;br&gt;int4&lt;br&gt;4 bytes" style="rounded=0;whiteSpace=wrap;html=1;sketch=0;fontColor=#393C56;strokeColor=#E07A5F;fillColor=#6C8EBF;" parent="5r2Fz3-xZ3uCIBKZ55EE-1" vertex="1"><mxGeometry x="80" y="160" width="110" height="50" as="geometry"/></mxCell></root></mxGraphModel></diagram></mxfile>